<svg width="504" height="406" viewBox="0 0 504 406" fill="none" xmlns="http://www.w3.org/2000/svg">
<path d="M380.172 12.4976L362.051 53.4706C400.801 70.6076 431.367 102.155 447.27 141.428C463.176 180.701 463.176 224.623 447.27 263.898C431.368 303.171 400.801 334.718 362.051 351.855L380.172 392.828C429.567 370.984 468.524 330.773 488.792 280.718C509.062 230.659 509.062 174.678 488.792 124.618C468.519 74.5586 429.562 34.3476 380.172 12.5076V12.4976Z" fill="black"/>
<path d="M403.203 202.661C403.183 181.919 397.148 161.63 385.828 144.247C374.508 126.868 358.39 113.142 339.43 104.735L321.27 145.692V145.688C336.079 152.224 347.762 164.266 353.844 179.27C359.926 194.27 359.926 211.051 353.844 226.051C347.762 241.055 336.078 253.098 321.27 259.633L339.43 300.59V300.587C358.391 292.18 374.508 278.454 385.828 261.075C397.148 243.692 403.183 223.403 403.203 202.661V202.661Z" fill="black"/>
<path d="M24.1324 289.621H81.3744L230.744 402.621C234.756 405.657 240.143 406.157 244.646 403.918C249.154 401.676 252.002 397.079 252.002 392.047V13.2574C252.002 8.22619 249.154 3.62849 244.646 1.38639C240.143 -0.851911 234.756 -0.351913 230.744 2.68329L81.3744 115.683H24.1324C17.7301 115.683 11.5934 118.226 7.06641 122.754C2.54301 127.277 0 133.418 0 139.816V265.476C0 271.874 2.54301 278.015 7.06641 282.538C11.5937 287.065 17.7304 289.608 24.1324 289.608V289.621Z" fill="black"/>
</svg>
